<svg width="93" height="82" viewBox="0 0 93 82" fill="none" xmlns="http://www.w3.org/2000/svg">
<path d="M17.7999 11.9001C10.5999 19.1001 6.6999 27.7001 5.9999 37.6001L0.399902 76.6001L22.1999 73.1001C29.1999 78.5001 37.2999 81.2001 46.4999 81.2001C51.0999 81.2001 55.2999 80.6001 59.2999 79.2001C63.3999 77.8001 67.2999 75.8001 70.7999 73.1001L92.7999 76.6001L86.9999 36.1001L86.7999 36.4001C86.7999 36.3001 86.7999 36.2001 86.7999 36.1001C85.8999 26.8001 81.9999 18.7001 75.0999 11.9001C67.1999 4.0001 57.6999 0.100098 46.4999 0.100098C35.2999 0.100098 25.6999 4.0001 17.7999 11.9001ZM41.9999 25.1001C43.0999 26.1001 43.5999 27.4001 43.5999 28.9001V45.3001C43.5999 46.8001 43.0999 48.0001 41.9999 49.0001C40.9999 50.0001 39.6999 50.6001 38.1999 50.6001C36.6999 50.6001 35.4999 50.1001 34.4999 49.0001C33.4999 48.0001 32.8999 46.7001 32.8999 45.3001V28.9001C32.8999 27.4001 33.3999 26.2001 34.4999 25.1001C35.4999 24.1001 36.7999 23.5001 38.1999 23.5001C39.7999 23.5001 40.9999 24.0001 41.9999 25.1001ZM59.2999 25.1001C60.3999 26.1001 60.8999 27.4001 60.8999 28.9001V45.3001C60.8999 46.8001 60.3999 48.0001 59.2999 49.0001C58.2999 50.0001 56.9999 50.6001 55.5999 50.6001C54.0999 50.6001 52.8999 50.1001 51.7999 49.0001C50.7999 48.0001 50.1999 46.7001 50.1999 45.3001V28.9001C50.1999 27.4001 50.6999 26.2001 51.7999 25.1001C52.7999 24.1001 54.0999 23.5001 55.5999 23.5001C57.0999 23.5001 58.2999 24.0001 59.2999 25.1001ZM63.6999 53.0001L69.5999 58.0001C68.7999 59.1001 67.8999 60.1001 66.8999 61.1001C61.6999 66.3001 55.4999 68.9001 48.2999 69.1001C48.0999 69.1001 47.7999 69.1001 47.4999 69.1001C39.8999 69.1001 33.3999 66.4001 28.0999 61.1001C27.1999 60.2001 26.2999 59.2001 25.4999 58.1001L31.2999 53.0001C31.9999 53.9001 32.6999 54.8001 33.4999 55.6001C37.2999 59.4001 41.9999 61.4001 47.4999 61.4001C47.7999 61.4001 48.0999 61.4001 48.2999 61.4001C53.3999 61.2001 57.7999 59.3001 61.4999 55.6001C62.2999 54.9001 62.9999 54.0001 63.6999 53.0001Z" fill="#ED1C24"/>
</svg>
